<svg width="1131" height="282" viewBox="0 0 1131 282" fill="none" xmlns="http://www.w3.org/2000/svg">
<path fill-rule="evenodd" clip-rule="evenodd" d="M64.3813 23.648L143.452 114.281L8.10665 195.664L0 52.9267L64.3813 23.648Z" fill="#0049E3"/>
<path fill-rule="evenodd" clip-rule="evenodd" d="M116.405 -3.13084e-07L219.577 70.7347L185.103 95.8387L109.3 3.23332L116.405 -3.13084e-07Z" fill="#64ABFF"/>
<path fill-rule="evenodd" clip-rule="evenodd" d="M236.937 108.336L247.291 181.576L209.52 132.132L236.937 108.336Z" fill="#44FFF1"/>
<path fill-rule="evenodd" clip-rule="evenodd" d="M178.607 161.784L228.208 228.031L141.735 281.753L86.2654 246.236L178.607 161.784Z" fill="#44FFF1"/>
<path d="M330.755 216.941C322.407 216.941 315.25 213.965 309.302 208.016C303.358 202.068 300.388 194.852 300.388 186.353V173.399H330.755V179.136C330.755 183.38 330.903 185.647 331.181 185.917C331.476 186.208 333.728 186.353 337.982 186.353H415.081C419.476 186.353 421.776 186.208 421.987 185.917C422.202 185.647 422.317 183.38 422.317 179.136V162.995C422.317 158.74 422.202 156.471 421.987 156.186C421.776 155.908 419.476 155.768 415.081 155.768H330.755C322.407 155.768 315.25 152.796 309.302 146.848C303.358 140.896 300.388 133.752 300.388 125.395V94.5883C300.388 86.0925 303.358 78.8804 309.302 72.9319C315.25 66.9734 322.407 64 330.755 64H422.734C430.946 64 438.098 66.9734 444.183 72.9319C450.273 78.8804 453.321 86.0925 453.321 94.5883V107.539H422.317V101.815C422.317 97.5683 422.202 95.3008 421.987 95.0128C421.776 94.7314 419.476 94.5883 415.081 94.5883H337.982C333.728 94.5883 331.476 94.7314 331.181 95.0128C330.903 95.3008 330.755 97.5683 330.755 101.815V117.953C330.755 122.205 330.903 124.477 331.181 124.747C331.476 125.043 333.728 125.173 337.982 125.173H422.734C430.946 125.173 438.098 128.153 444.183 134.103C450.273 140.054 453.321 147.206 453.321 155.557V186.353C453.321 194.852 450.273 202.068 444.183 208.016C438.098 213.965 430.946 216.941 422.734 216.941H330.755Z" fill="#0E0E0E"/>
<path d="M487.485 216.941V64H517.651V216.941H487.485Z" fill="#0E0E0E"/>
<path d="M545.375 216.941V64.2248H667.73C676.081 64.2248 683.265 67.2281 689.29 73.2432C695.31 79.2567 698.315 86.4438 698.315 94.8063V135.162C698.315 143.377 695.31 150.501 689.29 156.507C683.265 162.526 676.081 165.533 667.73 165.533H662.839L698.107 207.385V216.941H666.026L622.913 165.533L575.965 165.757V216.941H545.375ZM582.976 134.948H660.292C664.547 134.948 666.813 134.808 667.094 134.521C667.369 134.237 667.52 131.974 667.52 127.727V101.815C667.52 97.5683 667.369 95.3342 667.094 95.1277C666.813 94.9096 664.547 94.8063 660.292 94.8063H582.976C578.732 94.8063 576.498 94.9096 576.288 95.1277C576.08 95.3342 575.965 97.5683 575.965 101.815V127.727C575.965 131.974 576.08 134.237 576.288 134.521C576.498 134.808 578.732 134.948 582.976 134.948Z" fill="#0E0E0E"/>
<path d="M731.857 216.941V64H762.016V216.941H731.857Z" fill="#0E0E0E"/>
<path d="M820.127 216.941C811.628 216.941 804.413 213.965 798.456 208.016C792.516 202.068 789.536 194.852 789.536 186.353V64H820.127V179.136C820.127 183.38 820.232 185.647 820.435 185.917C820.66 186.208 822.886 186.353 827.133 186.353H904.454C908.699 186.353 910.968 186.208 911.248 185.917C911.534 185.647 911.674 183.38 911.674 179.136V64H942.462V186.353C942.462 194.852 939.467 202.068 933.452 208.016C927.43 213.965 920.236 216.941 911.886 216.941H820.127Z" fill="#0E0E0E"/>
<path d="M1007.64 216.941C999.295 216.941 992.141 213.965 986.193 208.016C980.244 202.068 977.272 194.852 977.272 186.353V173.399H1007.64V179.136C1007.64 183.38 1007.78 185.647 1008.07 185.917C1008.36 186.208 1010.62 186.353 1014.87 186.353H1091.97C1096.37 186.353 1098.67 186.208 1098.88 185.917C1099.08 185.647 1099.2 183.38 1099.2 179.136V162.995C1099.2 158.74 1099.08 156.471 1098.88 156.186C1098.67 155.908 1096.37 155.768 1091.97 155.768H1007.64C999.295 155.768 992.141 152.796 986.193 146.848C980.244 140.896 977.272 133.752 977.272 125.395V94.5883C977.272 86.0925 980.244 78.8804 986.193 72.9319C992.141 66.9734 999.295 64 1007.64 64H1099.63C1107.84 64 1114.98 66.9734 1121.07 72.9319C1127.17 78.8804 1130.2 86.0925 1130.2 94.5883V107.539H1099.2V101.815C1099.2 97.5683 1099.08 95.3008 1098.88 95.0128C1098.67 94.7314 1096.37 94.5883 1091.97 94.5883H1014.87C1010.62 94.5883 1008.36 94.7314 1008.07 95.0128C1007.78 95.3008 1007.64 97.5683 1007.64 101.815V117.953C1007.64 122.205 1007.78 124.477 1008.07 124.747C1008.36 125.043 1010.62 125.173 1014.87 125.173H1099.63C1107.84 125.173 1114.98 128.153 1121.07 134.103C1127.17 140.054 1130.2 147.206 1130.2 155.557V186.353C1130.2 194.852 1127.17 202.068 1121.07 208.016C1114.98 213.965 1107.84 216.941 1099.63 216.941H1007.64Z" fill="#0E0E0E"/>
</svg>
